<?xml version="1.0" encoding="utf-8"?>
<!-- Generator: Adobe Illustrator 21.0.0, SVG Export Plug-In . SVG Version: 6.00 Build 0)  -->
<svg version="1.1" id="Слой_1" xmlns="http://www.w3.org/2000/svg" xmlns:xlink="http://www.w3.org/1999/xlink" x="0px" y="0px"
	 viewBox="0 0 200 200" style="enable-background:new 0 0 200 200;" xml:space="preserve">
<g>
	<path d="M181.6,65.4c-0.1-1.4-0.2-3.3-0.5-4.6c-0.2-1-0.7-2.2-1-3.2c-0.3-1-0.6-2.5-0.7-3.6c-0.2-1.4,0-3.3-0.3-4.6
		c-0.3-1.2-1.2-2.5-1.5-3.7c-0.3-1-0.1-2.4-0.3-3.4c-0.2-1-0.8-2.3-1.2-3.3c-0.4-1-0.7-2.4-1.2-3.4c-0.4-0.9-1-2.1-1.5-2.9
		c-0.7-1.2-1.7-2.6-2.5-3.6c-2-2.6-4.4-10-7.3-8.3c-1.9,1.1,1.2,5.2,0.6,7.4c-0.3,1.5-1.4,3.3-2.5,4.4c-2.7,2.9-7.7,5.3-11.5,6.6
		c-1.7,0.6-4.2,1.8-5.8,1c-0.8-0.4-1.2-1.7-1.6-2.5c-1.2-2.1-2.5-5-3.8-6.9c-2.5-3.5-6.3-8.2-9.9-10.6c-6.9-4.7-15.9-9.7-26-9.3
		c-17,0.6-31.2,9.5-40.1,23c0,0-6.2,3.4-9,3.5c-4.2,2-12.3-0.8-14.7-4.7c-1.2-2.1,2.6-6.6,0.6-8c-4.4-3.2-9.3,9-12,13.8
		c-3,5.3-5.3,13.4-6.2,19.5c-0.7,4.7,0.1,11.2,0,15.9c-0.1,3.9-1.1,9.1-0.7,12.9c0.6,5.3,3.1,12.1,4.8,17.2
		c3.4,10.6,7.7,25.1,13,34.9c2.6,4.9,7.5,10.4,10.4,15.1c2.5,4,5.9,9.2,7.7,13.5c0.9,2.1,1.3,5,2.1,7.1c0.8,2.3,0.9,8,3.2,7.5
		c2.1-0.5-0.3-5.1,0.5-7c0.4-1,1.8-1.9,2.5-2.8c1.3-1.8,2.2-4.6,3.5-6.4c0.7-1.1,1.6-3.9,2.8-3.3c1.2,0.6-0.7,3.1-1.2,4.4
		c-0.5,1.6-1.6,3.7-1.9,5.3c-0.2,1.2-1.4,3.8-0.2,4.2c1,0.3,1.6-1.8,2.2-2.7c1-1.6,1.4-4.5,2.9-5.7c0.4-0.4,1.3-1,1.8-0.7
		c1,0.5,0.5,2.6,0.3,3.8c-0.2,1.7-1.5,3.7-1.9,5.3c-0.3,1-1.5,3-0.5,3.6c1.1,0.6,2.5-1.8,3.1-2.9c1.2-1.9,0.7-5.4,2.1-7.1
		c0.7-0.9,2.4-2.5,3.2-1.8c0.9,0.7-0.5,2.5-0.8,3.6c-0.5,1.8-1.4,4.2-1.9,6c-0.3,1.2-0.8,2.9-1,4.2c-0.1,0.7-0.6,2,0,2.4
		c0.9,0.6,2.4-1.1,3.1-1.9c1.3-1.5,1.6-4.3,2.2-6.1c0.6-2,0.9-4.8,1.7-6.8c0.6-1.5,1-5,2.5-4.6c1,0.3,0.4,2.6,0.3,3.7
		c-0.1,2.3-1.1,5.3-1.5,7.6c-0.4,2.3-1,5.3-1.1,7.6c0,0.5-0.3,1.4,0.1,1.7c1.6,1.1,2.6-3.7,3.3-5.4c1.1-2.6,1.5-6.5,2.2-9.2
		c0.6-2.3,0.9-5.7,2.4-7.6c0.3-0.3,0.7-0.9,1.1-0.8c1.7,0.4,0.1,4.1,0,5.9c-0.1,2.4-0.5,5.6-0.6,8.1c-0.1,2.2-0.2,5.2-0.2,7.4
		c0,1.3-0.6,3.2,0.1,4.4c0.2,0.4,0.8,0.9,1.2,0.9c1.1-0.1,1.5-2.2,1.8-3.2c0.8-2.6,0-6.5,0.2-9.2c0.1-1.7,0-4,0.4-5.7
		c0.2-0.8,0.4-2.6,1.2-2.6c1.3,0,0.1,3,0.4,4.3c0.1,0.5,0,1.4,0.5,1.6c1.6,0.5,0.3-5.3,1.9-5.1c1.7,0.2,0,4.1,0.2,5.8
		c0.3,2.1-0.4,7.3,1.6,6.8c1.6-0.4,0.1-4,0.2-5.7c0.1-1.5,0.1-3.4,0.3-4.9c0.1-0.8-0.3-2.3,0.4-2.5c1.5-0.6,0.7,3.6,1,5.1
		c0.4,2.2,0.9,5,1,7.2c0.1,1.8-0.3,4.2,0.1,6c0.1,0.7,0.3,2.1,1,2.2c1.9,0.3,1.6-4.2,1.8-6.1c0.1-2.1-0.7-4.8-0.9-6.8
		c-0.2-2.1-0.4-4.9-0.3-7c0-1.9-1.5-6.4,0.4-6.5c1,0,1.3,2.1,1.8,3.1c0.8,2,1.3,4.9,1.8,6.9c0.6,2.4,1.3,5.6,2.1,8
		c0.4,1.3,0.8,3.2,1.7,4.2c0.1,0.2,0.4,0.5,0.6,0.4c1.6-0.3,0.3-3.7,0.3-5.3c0-1.2-0.3-2.8-0.5-3.9c-0.3-2-0.7-4.6-1.1-6.6
		c-0.2-1.4-2.1-4.2-0.7-4.7c1.3-0.5,1.9,2.6,2.5,3.9c0.7,1.3,1.4,3.1,1.9,4.4c1.1,2.5,1.8,6.3,3.4,8.5c0.5,0.7,1.4,2.5,2.2,2.1
		c0.9-0.4-0.3-2.4-0.5-3.4c-0.4-2.3-1.4-5.2-1.9-7.5c-0.3-1.5-2.1-4.1-0.9-5.1c0.5-0.4,1.5,0,1.9,0.3c1.3,0.9,1.8,3.4,2.5,4.9
		c1,2.1,0.6,7.3,2.9,7.2c0.6,0,1.2-0.9,1.3-1.5c0.7-2.3-1.4-5.4-1.9-7.7c-0.4-1.5-2.6-4.3-1.2-5.1c0.4-0.2,1.2,0.3,1.5,0.7
		c1.5,1.3,1.8,4.3,2.8,6.1c0.8,1.4,1.5,5.1,2.9,4.4c0.7-0.4,0.2-1.9,0.1-2.7c-0.3-2.8-2.1-6.2-2.8-9c-0.3-1-1.6-2.8-0.8-3.5
		c1.6-1.5,2.9,4.2,4.4,5.9c0.6,0.7,1.2,2.4,2,2.2c1-0.2,0.1-3.2,1.2-3.4c0.9-0.1,1.4,1.5,1.7,2.3c0.6,1.8,0.1,4.4,0.2,6.2
		c0.1,1.9-1.3,5.9,0.6,6.3c1,0.2,1.9-1.5,2.5-2.4c0.8-1.2,1.1-3.2,1.5-4.6c0.6-2,1-4.8,1.6-6.8c0.5-1.7,1-4.1,1.9-5.6
		c1.1-2,3.7-4,5-5.9c6.2-8.8,12.6-21.9,17.1-31.7c2.8-6,6.2-14.1,7.9-20.4c1.6-5.9,2.6-14.1,3.2-20.2c0.2-1.9,0.3-4.6,0.4-6.5
		c0.1-2.8,0.5-6.5,0.5-9.3C181.8,67.3,181.7,66.2,181.6,65.4z M149.7,42.8c0.8-0.7,2.5,0.7,3.6,0.7c1.4-0.1,3.2-0.7,4.4-1.4
		c2-1.2,3.7-4.1,5.6-5.4c1.1-0.7,2.6-2,3.9-1.8c1.3,0.2,2.6,1.9,3.2,3.1c0.8,1.5,1.7,4,0.9,5.4c-0.6,1-2.5,1.4-3.7,1.7
		c-1.4,0.4-3.4,0.1-4.9,0.4c-1,0.2-2.4,0.9-3.4,0.9s-2.3-1-3.4-0.8c-0.6,0.1-1.2,0.7-1.7,1c-0.9,0.3-2.1,0.8-2.9,0.6
		c-0.5-0.1-1.1-0.6-1.3-1C149.5,45.2,149,43.4,149.7,42.8z M146.8,73.4c0.6-1.1,2.7-1.1,3.9-1.2c1.8-0.1,5.9-0.8,5.9,1
		c0,1.2-3.6,0.4-3.8,1.6c-0.3,1.6,3.2,2.1,4.4,3.3c1.8,1.9,6.7,5.8,4.6,7.2c-1,0.7-2.7-1.2-3.7-1.9c-1.7-1.2-3.2-3.8-5-4.9
		c-1.5-0.9-4.1-0.4-5.3-1.6C147,76.3,146.2,74.4,146.8,73.4z M153.1,88.4c-0.7,0.6-2.2-0.8-2.7-1.6c-0.6-1,0.3-2.6-0.1-3.7
		c-0.3-0.9-2.9-1.8-2.5-2.8c0.7-1.5,4.1,0.6,5.3,1.7c1.1,1,3.2,3.5,2.1,4.6c-0.8,0.7-2.5-2-3.3-1.3C151.3,86,153.9,87.8,153.1,88.4z
		 M102.7,16.2c16.8,0,35.1,13.1,35.4,37.1c0.3,24.3-17.9,38.2-34.9,38.3C86,91.8,67,77.9,67.2,53.3C67.4,29.3,85.9,16.2,102.7,16.2z
		 M35.7,37c0.4-0.1,0.9,0.3,1.2,0.4c1.8,0.7,4,1.8,5.8,2.6c2.5,1.1,8.5,0.9,8.2,3.6c-0.4,2.8-6.7,1-9.6,0.8
		c-2.6-0.1-7.4,0.6-8.4-1.8C32,40.9,33.8,37.5,35.7,37z M31.1,62.9c-0.5-4.4-3.1-11.8,0.2-14.7c1.2-1.1,3.7-0.5,5.4-0.4
		c3,0.2,6.6,2.5,9.6,2.8c2.9,0.3,7.5-3,9.6-1c2.5,2.5-1.2,8.2-1.6,11.8c-0.1,1.4,0.6,3.8-0.4,4.8c-1.8,1.8-6-0.4-8.6-0.2
		c-3.9,0.3-9.8,4.6-12.9,2.2C31,67.1,31.3,64.5,31.1,62.9z M33.3,73.3c2.4-3.1,8.9-1.9,12.9-1.6c3.1,0.3,10.1-0.1,9.8,3
		c-0.3,2.7-6.2,1.2-8.8,1.8c-4.1,1-10.6,6.4-13.7,3.6C31.9,78.7,32,74.9,33.3,73.3z M37,89.6c-1.1-0.4-2.1-2.4-1.8-3.6
		c0.5-2.1,4.2-2.9,6.2-3.6c1.6-0.6,5.1-2.1,5.7-0.7c0.4,0.8-1,1.8-1.6,2.4C43.5,86.2,39.9,90.7,37,89.6z M47.8,108.7
		c-1.2-0.1-2.7-1.6-3.3-2.2c-2.9-3-7.4-8.7-6-12.6c0.7-1.9,3.9-2.5,5.6-3.5c3.4-2.2,7.3-8.2,11.3-7.5c0.9,0.1,2,1.1,2.2,2
		c0.7,2.8-3.6,5.7-5.1,8.2c-1.4,2.2-5.7,5-4.6,7.3c2.1,4.2,7.8-7.6,11.2-10.9c1.6-1.5,3.3-5,5.5-4.9c1.9,0.1,4.1,2.8,4.4,4.7
		c0.6,3.5-2.9,7.9-5.3,10.4C60,103.6,53.3,109.3,47.8,108.7z M56.4,115.6c-0.9,0.5-3,0.5-3.5-0.4c-0.3-0.6,0.2-1.7,0.7-2.2
		c1-1.1,4.1-2.4,4.9-1.6C59.3,112.4,57.7,114.9,56.4,115.6z M61.2,164.1c-1,0-2.1-1-2.1-3.1c0-2.1,1.1-3.1,2.1-3.1s2.1,1,2.1,3.1
		C63.3,163.1,62.2,164.1,61.2,164.1z M63.4,170.1c-0.5,0-1.1-0.5-1.1-1.6c0-1.1,0.6-1.6,1.1-1.6c0.5,0,1.1,0.5,1.1,1.6
		C64.5,169.6,63.9,170.1,63.4,170.1z M73.3,126c-1.7,0.7-4.4-0.3-6-1.1c-2.5-1.2-6-3.6-6.6-6.2c-0.9-3.7,2.8-8.3,4.4-11.8
		c1.9-4.1,3.2-11.3,7.3-13.1c2.3-1,6.4-0.1,8.2,1.3c1.9,1.6,3.8,4.8,4,7.3c0.3,3.7-3.1,8.2-4.7,11.5C78.2,117.7,77.1,124.4,73.3,126
		z M86.1,120.3c-0.2,2.6-0.9,6.4-2.6,8.4c-0.8,0.9-2.3,1.8-3.5,1.8c-0.6,0-1.8-0.6-2.1-1.3c-1.3-2.8,2.4-6.8,3.8-9.5
		c0.6-1.2,1.8-2.5,2.4-3.7c0.4-0.8,0.1-2.7,1-2.9C87.1,112.5,86.3,118.1,86.1,120.3z M89.7,160.3c-0.7,0-1.4-0.6-1.4-2.2
		c0-1.6,0.7-2.2,1.4-2.2s1.4,0.6,1.4,2.2C91.1,159.7,90.3,160.3,89.7,160.3z M109.5,133c-0.6,1.3-3.1,1.6-4.5,1.9
		c-3.2,0.5-7.6-0.7-10.9-1.2c-2.2-0.3-6,0.5-7.1-1.4c-1.3-2.2,2.5-5.5,3-8c0.5-2.6,0.2-6.3,0.3-9c0-3.5-2.8-9.5-0.1-11.9
		c1.6-1.4,4.9-0.1,7,0.3c1.6,0.3,4.2,0.6,5.3,1.9c3,3.7,0.4,11.3,0.6,16.1c0.1,3-2.2,9,0.6,10c1.4,0.5,2.7-3.2,4.1-2.8
		C109,129.3,110,131.8,109.5,133z M112.7,159.2c-0.6,0-1.5-0.8-1.5-3.1c0-2.3,0.9-3.1,1.5-3.1c0.6,0,1.5,0.8,1.5,3.1
		C114.2,158.4,113.3,159.2,112.7,159.2z M123.3,129.8c-2.1,0.6-5.4,2.6-7.4,1.5c-2.1-1.2-1.6-5.3-2.2-7.6c-1.1-3.7-3.8-8.5-3.9-12.4
		c0-2.8,0.1-7.3,2.4-9c0.8-0.6,2.4-0.7,3.2-0.4c2.6,1,3.7,5.6,5.4,7.9c1.8,2.5,5.7,5.3,6.3,8.4c0.1,0.9-1.1,2.3-0.6,3.1
		c0.7,1.3,3.8,0.1,4.9,1.1c0.7,0.7,1.3,2.1,1,3C131.4,128.3,126.1,128.9,123.3,129.8z M136.3,163.9c-1.5,0.8-2.5-3.2-3.3-4.7
		c-0.4-0.9-1.8-2.5-1.1-3.2c0.7-0.7,2.8,0.4,3.3,1.3c0.4,0.6,0.2,1.6,0.3,2.3C135.8,160.9,137.5,163.3,136.3,163.9z M143.2,160.1
		c-0.3,1.8-0.6,5.8-2.5,5.6c-1.1-0.1-1.1-2.4-1.4-3.4c-0.2-0.7-0.8-1.8-0.4-2.5c0.6-1.3,3.3-2.8,4.3-1.9
		C143.7,158.2,143.3,159.4,143.2,160.1z M151.1,111.9c-2.4,2.6-5.5,9-8.8,7.8c-2.6-1-1.3-6.5-2.1-9.2c-0.8-2.7-5.6-7.3-3.2-8.9
		c0.9-0.6,2.6,0.7,3.4,1.2c1.6,0.9,3.4,2.8,5.1,3.7c2.2,1.2,7.3,0.3,7.8,2.8C153.5,110.2,151.9,111.2,151.1,111.9z M157.7,104.8
		c-2.3,2.9-8.3-2.5-11.8-3.5c-3.2-0.9-7.9-4.9-10.7-3.1c-1.5,0.9-1.6,3.8-1.6,5.6c-0.1,4.4,3.5,9.8,4.1,14.2c0.2,1.2,1.2,3.3,0.1,4
		c-1.6,1-3.6-2.5-5-3.8c-3.6-3.5-8.2-8.5-10.5-13c-1-1.9-3.1-4.8-2.2-6.7c1.2-2.6,6.6-1.7,8.9-3.4c2.5-1.8,3.5-6.8,6.3-8.2
		c2-1,5.4-1.1,7.5-0.3c2.5,0.9,4.6,4.1,6.3,6.1C152,96,160.5,101.3,157.7,104.8z M164,96.5c-0.3,1.1-1.7,2.5-2.8,2.5
		c-2.6,0-6.8-4.7-5.5-6.8c1.2-1.8,5.5-0.3,7.1,1.2C163.6,94,164.2,95.5,164,96.5z M170.7,81.9c-0.2,0.9-2.4,0.1-3,0.8
		c-1,1.2,1.2,4.9-0.3,5.3c-1.7,0.4-1.9-3.7-2.9-5.2c-0.8-1.1-2.2-2.4-2.9-3.5c-0.9-1.4-3.2-3.7-2.2-4.9c1.8-2.1,5.3,3.7,7.6,5.1
		C168.1,80.3,171,80.6,170.7,81.9z M170,74.6c-0.5,0.4-1.6,0.6-2.1,0.3c-0.4-0.3-0.5-1.3-0.3-1.8c0.5-1,2.8-2.4,3.4-1.7
		C171.8,72,170.8,73.9,170,74.6z M170,66.7c-2.2,2.1-7,1-10,0.9c-2.5-0.1-6.3-3.3-8.2-1.7c-0.9,0.7,0.4,3.1-0.6,3.6
		c-0.7,0.3-1.9-0.4-2.3-1c-1-1.8,1.3-4.6,1.6-6.6c0.4-2.9-1.9-8.5,0.4-10.7c1.8-1.7,5.7-0.4,8.2-0.4c3.1,0,7.9-1.6,10.4,0.3
		c1.5,1.2,1.9,4.1,2,6.1C171.9,59.9,172.2,64.7,170,66.7z"/>
	<path d="M104.3,86.1c14-0.4,28.1-12.6,27.8-32.8c-0.3-20.4-15-32.4-29.2-32.3c-14.4,0-29.5,12.3-29.2,33
		C74,74.7,89.8,86.5,104.3,86.1z M80.6,51.2c0.7-14.7,11.6-23.8,22.9-23.6c11.3,0.3,21.5,9.9,21.9,24.6c0.4,15.5-10,26.9-21.9,26.9
		C91.1,79.2,79.8,67.3,80.6,51.2z"/>
	<path d="M114.5,53.6c-0.1-13-11.3-23.5-11.3-23.5s-9.7,9.8-9.8,21.6c0,13.2,10.9,24.1,11,24.1C104.3,75.8,114.6,65.8,114.5,53.6z
		 M99.7,52.1c0-3.9,0.2-12.2,4.1-12.3c4.3-0.1,4.4,9.1,4.4,13.5c0,4.1,0,12.9-4,13C99.7,66.5,99.6,56.6,99.7,52.1z"/>
</g>
</svg>
