<?xml version="1.0" encoding="utf-8"?>
<!-- Generator: Adobe Illustrator 21.0.0, SVG Export Plug-In . SVG Version: 6.00 Build 0)  -->
<svg version="1.1" id="Слой_1" xmlns="http://www.w3.org/2000/svg" xmlns:xlink="http://www.w3.org/1999/xlink" x="0px" y="0px"
	 viewBox="0 0 315 129.5" style="enable-background:new 0 0 315 129.5;" xml:space="preserve">
<style type="text/css">
	.st0{fill:#2A2E39;}
</style>
<path class="st0" d="M40,103.9c-2.9,2.2-5.9,4.4-8.8,6.7c-2.1,1.6-4.2,1.5-6.1-0.3c-2.5-2.4-5.1-4.8-7.6-7.2c-1.9-1.8-2.1-3.9-0.7-6
	c1.9-2.9,3.9-5.8,5.8-8.7c0.2-0.3,0.2-0.6,0-0.9c-2.1-3.4-3.8-7-4.9-10.9c-0.1-0.3-0.2-0.5-0.6-0.5c-3.6-0.5-7.2-1-10.8-1.5
	c-2.2-0.3-3.8-2.1-3.9-4.3c-0.1-3.7-0.3-7.4-0.3-11.1c0-0.7,0.1-1.5,0.4-2.2c0.6-1.4,1.7-2.1,3.2-2.4c3.5-0.7,7-1.4,10.5-2.1
	c0.4-0.1,0.5-0.2,0.6-0.5c0.9-4,2.3-7.8,4.2-11.4c0.2-0.4,0.1-0.6-0.1-0.9c-2.1-2.7-4.2-5.5-6.3-8.3c-1.7-2.2-1.6-4.3,0.3-6.3
	c2.4-2.5,4.7-5,7.1-7.5c1.5-1.7,4.2-2.3,6.4-0.7c2.8,2,5.7,3.8,8.5,5.7c0.4,0.2,0.6,0.2,1,0c3.3-2,6.9-3.7,10.6-4.8
	c0.4-0.1,0.5-0.3,0.5-0.6c0.5-3.4,1-6.8,1.4-10.1c0.3-2.7,1.5-4,4.2-4.4c1.2-0.2,2.4-0.1,3.6-0.2c2.7-0.1,5.4-0.2,8.1-0.2
	c2.2,0,3.9,1.4,4.4,3.6c0.7,3.4,1.4,6.9,2,10.3c0.1,0.5,0.3,0.7,0.8,0.9c3.9,0.9,7.6,2.3,11.1,4.3c0.4,0.2,0.6,0.1,0.9-0.1
	c2.8-2.1,5.5-4.2,8.3-6.3c2-1.6,4.2-1.4,6.1,0.3c2.5,2.4,5.1,4.8,7.6,7.2c1.9,1.8,2.2,3.9,0.7,6.1c-1.9,2.9-3.8,5.8-5.8,8.7
	c-0.2,0.3-0.2,0.6,0,0.9c2.1,3.4,3.8,7.1,4.9,11c0.1,0.4,0.3,0.5,0.7,0.6c3.4,0.5,6.8,1,10.3,1.4c2.5,0.3,4.1,1.9,4.2,4.4
	c0.1,3.7,0.2,7.3,0.3,11c0,2.2-1.4,4-3.6,4.4c-3.4,0.7-6.8,1.4-10.2,2c-0.6,0.1-0.8,0.3-1,0.9c-0.8,3.3-1.9,6.4-3.4,9.4
	c-0.1,0.2-0.2,0.3-0.3,0.5c-0.2-0.2-0.3-0.3-0.4-0.4c-3.8-3.8-7.5-7.5-11.3-11.3c-0.3-0.3-0.4-0.6-0.3-1
	c4.9-17.3-5.9-35.2-23.6-38.9C52,28.6,35.4,39.6,32,56.3c-3.4,16.7,7.3,33,23.9,36.6c6.3,1.3,12.5,0.8,18.4-1.7
	c0.4-0.2,0.7-0.1,1,0.2c3.6,3.6,7.3,7.3,10.9,10.9c0.1,0.1,0.2,0.2,0.4,0.4c-0.2,0.1-0.3,0.2-0.5,0.3c-3.1,1.8-6.4,3.3-9.8,4.3
	c-0.4,0.1-0.6,0.3-0.6,0.8c-0.5,3.6-1,7.1-1.5,10.7c-0.3,2.2-2,3.7-4.2,3.8c-3.7,0.1-7.5,0.2-11.2,0.3c-2.5,0.1-4.2-1.3-4.7-3.8
	c-0.7-3.4-1.4-6.8-2-10.2c-0.1-0.3-0.2-0.5-0.5-0.6c-4-0.9-7.8-2.4-11.4-4.3C40.1,104,40.1,103.9,40,103.9z"/>
<path class="st0" d="M47.7,60.8c1.4,0.9,2.7,1.8,4.1,2.6c1.5,1,3,1.9,4.5,2.9c1.9,1.2,4.2,1.2,6.1-0.3c2.5-2,4.2-4.5,4.5-7.7
	c0.2-2.2-0.6-4-2.6-5.3c-2.6-1.7-5.3-3.4-8-5.2c0.3-0.3,0.5-0.6,0.8-0.7c5.7-2.7,11.4-2.6,16.9,0.5c3.4,1.9,5.8,4.7,6.8,8.6
	c0.6,2.5,0.4,4.9-0.1,7.4c-0.5,2.1-0.4,4.1,1,5.9c0.2,0.3,0.4,0.5,0.7,0.7c14.7,14.7,29.4,29.4,44.1,44.1c1.5,1.5,2.3,3.2,2.4,5.2
	c0.1,2.9-1.6,5.6-4.3,6.8c-2.7,1.2-5.8,0.6-8-1.4c-0.2-0.2-0.4-0.3-0.5-0.5C101.4,109.7,86.7,95,72.1,80.4c-1.9-1.9-4.2-2.6-6.9-1.7
	C60.9,80,57,79,53.5,76.3c-3.6-2.8-5.5-6.6-6.2-11c-0.1-0.9-0.2-1.7-0.3-2.6C46.9,62,47.2,61.4,47.7,60.8z M121.5,123.4
	c2.1,0,3.9-1.7,3.9-3.8c0-2.1-1.7-3.9-3.8-3.9c-2.2,0-3.9,1.7-3.9,3.9C117.6,121.7,119.4,123.4,121.5,123.4z"/>
<g>
	<path class="st0" d="M168.4,55.9h-15.6V45.5c0-3-0.2-4.9-0.5-5.7s-1.1-1.1-2.2-1.1c-1.3,0-2.1,0.5-2.5,1.4
		c-0.3,0.9-0.5,2.9-0.5,5.9v27.9c0,2.9,0.2,4.8,0.5,5.7c0.3,0.9,1.1,1.3,2.3,1.3c1.2,0,1.9-0.4,2.3-1.3c0.4-0.9,0.5-3,0.5-6.3v-7.6
		h15.6v2.3c0,6.2-0.4,10.6-1.3,13.2c-0.9,2.6-2.8,4.9-5.8,6.8c-3,2-6.7,2.9-11.1,2.9c-4.6,0-8.4-0.8-11.3-2.5s-4.9-4-5.9-6.9
		c-1-2.9-1.4-7.4-1.4-13.2V50.9c0-4.3,0.1-7.6,0.4-9.8c0.3-2.2,1.2-4.3,2.7-6.3c1.5-2,3.5-3.6,6.1-4.7c2.6-1.2,5.6-1.7,9-1.7
		c4.6,0,8.4,0.9,11.4,2.7c3,1.8,5,4,5.9,6.7c0.9,2.7,1.4,6.8,1.4,12.4V55.9z"/>
	<path class="st0" d="M209.8,65c0,6-0.1,10.3-0.4,12.8c-0.3,2.5-1.2,4.8-2.7,6.9c-1.5,2.1-3.5,3.7-6.1,4.8c-2.6,1.1-5.5,1.7-8.9,1.7
		c-3.2,0-6.1-0.5-8.7-1.6c-2.6-1.1-4.6-2.6-6.2-4.7c-1.6-2.1-2.5-4.4-2.8-6.9c-0.3-2.5-0.4-6.8-0.4-13V54.7c0-6,0.1-10.3,0.4-12.8
		c0.3-2.5,1.2-4.8,2.7-6.9c1.5-2.1,3.5-3.7,6.1-4.8c2.6-1.1,5.5-1.7,8.9-1.7c3.2,0,6.1,0.5,8.7,1.6c2.6,1.1,4.6,2.6,6.2,4.7
		c1.6,2.1,2.5,4.4,2.8,6.9c0.3,2.5,0.4,6.8,0.4,13V65z M194.1,45.2c0-2.8-0.2-4.6-0.5-5.4c-0.3-0.8-0.9-1.2-1.9-1.2
		c-0.8,0-1.4,0.3-1.9,0.9c-0.4,0.6-0.7,2.5-0.7,5.6v28.1c0,3.5,0.1,5.6,0.4,6.5c0.3,0.8,0.9,1.2,2,1.2c1.1,0,1.7-0.5,2-1.4
		c0.3-0.9,0.4-3.2,0.4-6.7V45.2z"/>
	<path class="st0" d="M235.6,64.6h-4.3v25.3h-15.7V29.7h15.7v21.6h4.3c0-5.2,0.3-9,0.8-11.3c0.5-2.3,1.5-4.2,3.1-5.8
		c1.6-1.5,3.5-2.7,5.9-3.3c2.3-0.7,5.1-1,8.3-1c3.3,0,6.2,0.4,8.6,1.1c2.4,0.7,4.4,1.9,5.9,3.6s2.5,3.9,3,6.5
		c0.4,2.7,0.6,7.2,0.6,13.6v10.3c0,6.5-0.2,11-0.6,13.7c-0.4,2.6-1.4,4.8-3,6.5c-1.6,1.7-3.6,3-6,3.8c-2.4,0.8-5.3,1.2-8.6,1.2
		c-3.1,0-5.8-0.3-8.1-1s-4.2-1.7-5.8-3.2c-1.5-1.5-2.6-3-3.1-4.7c-0.5-1.7-0.8-3.8-1-6.3c-0.1-2.5-0.2-5.8-0.2-9.9V64.6z
		 M256.1,75.1V45.2c0-2.5-0.1-4.3-0.4-5.2c-0.3-0.9-0.9-1.4-2.1-1.4c-0.9,0-1.5,0.4-1.9,1.1c-0.4,0.7-0.6,2.6-0.6,5.5v30.9
		c0,1.6,0.1,2.8,0.4,3.6c0.3,0.8,0.9,1.3,1.9,1.3c0.9,0,1.5-0.3,1.9-1C255.9,79.3,256.1,77.6,256.1,75.1z"/>
	<path class="st0" d="M305.3,55.8c2.3,0.8,4,2,5.1,3.8s1.7,5.8,1.7,12.3c0,4.8-0.5,8.5-1.6,11.1s-3,4.6-5.6,6
		c-2.7,1.4-6.1,2.1-10.3,2.1c-4.8,0-8.5-0.8-11.2-2.4s-4.5-3.6-5.4-5.9c-0.9-2.3-1.3-6.3-1.3-12.1V66h15v9.8c0,2.6,0.2,4.3,0.5,5
		c0.3,0.7,1,1.1,2.1,1.1c1.2,0,1.9-0.4,2.3-1.3c0.4-0.9,0.6-3.2,0.6-7v-4.2c0-2.3-0.3-4-0.8-5.1c-0.5-1.1-1.3-1.8-2.3-2.1
		c-1-0.3-3-0.5-5.9-0.6v-8.7c3.6,0,5.8-0.1,6.6-0.4c0.8-0.3,1.4-0.9,1.8-1.8c0.4-0.9,0.6-2.4,0.6-4.3V43c0-2.1-0.2-3.5-0.7-4.2
		c-0.4-0.7-1.1-1-2-1c-1,0-1.8,0.4-2.1,1.1c-0.4,0.7-0.6,2.2-0.6,4.5v4.9h-15v-5.1c0-5.7,1.3-9.6,3.9-11.6c2.6-2,6.8-3,12.5-3
		c7.2,0,12,1.4,14.6,4.2c2.6,2.8,3.8,6.7,3.8,11.7c0,3.4-0.5,5.8-1.4,7.3C309.2,53.2,307.6,54.6,305.3,55.8z"/>
</g>
<g>
	<path class="st0" d="M143.3,103.2c0,0.1,0,0.2,0,0.3c0,0.1,0,0.1-0.1,0.2s-0.1,0.1-0.1,0.1s-0.1,0-0.1,0h-2.2v6.4c0,0,0,0.1,0,0.1
		c0,0-0.1,0.1-0.1,0.1s-0.1,0-0.2,0s-0.2,0-0.3,0c-0.1,0-0.2,0-0.3,0s-0.2,0-0.2,0c-0.1,0-0.1,0-0.1-0.1c0,0,0-0.1,0-0.1v-6.4h-2.2
		c0,0-0.1,0-0.1,0s-0.1-0.1-0.1-0.1c0,0,0-0.1-0.1-0.2c0-0.1,0-0.2,0-0.3c0-0.1,0-0.2,0-0.3c0-0.1,0-0.1,0.1-0.2
		c0-0.1,0.1-0.1,0.1-0.1s0.1,0,0.1,0h5.8c0,0,0.1,0,0.1,0c0,0,0.1,0.1,0.1,0.1c0,0.1,0,0.1,0.1,0.2
		C143.3,103,143.3,103.1,143.3,103.2z"/>
	<path class="st0" d="M150.9,106.2c0,0.2-0.1,0.4-0.2,0.5c-0.1,0.1-0.2,0.1-0.4,0.1h-4.9c0,0.4,0,0.8,0.1,1.1
		c0.1,0.3,0.2,0.6,0.4,0.9c0.2,0.2,0.4,0.4,0.8,0.5c0.3,0.1,0.7,0.2,1.1,0.2c0.4,0,0.7,0,1-0.1c0.3-0.1,0.5-0.1,0.7-0.2
		c0.2-0.1,0.4-0.1,0.5-0.2s0.2-0.1,0.3-0.1c0,0,0.1,0,0.1,0c0,0,0.1,0,0.1,0.1c0,0,0,0.1,0,0.2s0,0.2,0,0.3c0,0.1,0,0.1,0,0.2
		c0,0.1,0,0.1,0,0.1s0,0.1,0,0.1s0,0.1-0.1,0.1s-0.1,0.1-0.3,0.1s-0.3,0.1-0.6,0.2s-0.5,0.1-0.8,0.2c-0.3,0.1-0.6,0.1-1,0.1
		c-0.6,0-1.2-0.1-1.6-0.3c-0.5-0.2-0.9-0.4-1.2-0.8c-0.3-0.3-0.6-0.8-0.7-1.3c-0.2-0.5-0.2-1.1-0.2-1.8c0-0.6,0.1-1.2,0.2-1.7
		c0.2-0.5,0.4-0.9,0.7-1.3c0.3-0.4,0.7-0.6,1.1-0.8c0.4-0.2,0.9-0.3,1.5-0.3c0.6,0,1.1,0.1,1.5,0.3s0.8,0.4,1,0.8s0.5,0.7,0.6,1.1
		s0.2,0.9,0.2,1.4V106.2z M149.5,105.8c0-0.7-0.1-1.3-0.5-1.7c-0.3-0.4-0.8-0.6-1.5-0.6c-0.3,0-0.6,0.1-0.9,0.2
		c-0.3,0.1-0.5,0.3-0.6,0.5c-0.2,0.2-0.3,0.5-0.4,0.7c-0.1,0.3-0.1,0.6-0.2,0.9H149.5z"/>
	<path class="st0" d="M158.6,110.1c0,0.1,0.1,0.1,0.1,0.2c0,0.1,0,0.1-0.1,0.1c-0.1,0-0.1,0.1-0.2,0.1c-0.1,0-0.2,0-0.4,0
		c-0.2,0-0.3,0-0.4,0s-0.2,0-0.2,0c-0.1,0-0.1,0-0.1-0.1c0,0-0.1-0.1-0.1-0.1l-1.8-3l-1.8,3c0,0,0,0.1-0.1,0.1c0,0-0.1,0.1-0.1,0.1
		c-0.1,0-0.1,0-0.2,0c-0.1,0-0.2,0-0.4,0c-0.2,0-0.3,0-0.4,0c-0.1,0-0.2,0-0.2-0.1s-0.1-0.1-0.1-0.1c0-0.1,0-0.1,0.1-0.2l2.3-3.6
		l-2.2-3.5c0-0.1-0.1-0.1-0.1-0.2c0-0.1,0-0.1,0.1-0.1c0.1,0,0.1-0.1,0.2-0.1c0.1,0,0.3,0,0.4,0c0.2,0,0.3,0,0.4,0s0.2,0,0.2,0
		s0.1,0,0.1,0.1c0,0,0.1,0.1,0.1,0.1l1.7,2.8l1.7-2.8c0,0,0-0.1,0.1-0.1c0,0,0.1-0.1,0.1-0.1c0,0,0.1,0,0.2,0c0.1,0,0.2,0,0.4,0
		c0.2,0,0.3,0,0.4,0c0.1,0,0.2,0,0.2,0.1s0.1,0.1,0.1,0.1c0,0.1,0,0.1-0.1,0.2l-2.2,3.5L158.6,110.1z"/>
	<path class="st0" d="M166.8,110.3c0,0,0,0.1,0,0.1c0,0-0.1,0.1-0.1,0.1s-0.1,0-0.2,0s-0.2,0-0.3,0c-0.1,0-0.3,0-0.3,0s-0.2,0-0.2,0
		s-0.1,0-0.1-0.1c0,0,0-0.1,0-0.1V107h-3.8v3.3c0,0,0,0.1,0,0.1c0,0-0.1,0.1-0.1,0.1s-0.1,0-0.2,0c-0.1,0-0.2,0-0.3,0
		c-0.1,0-0.2,0-0.3,0s-0.2,0-0.2,0s-0.1,0-0.1-0.1c0,0,0-0.1,0-0.1v-7.5c0,0,0-0.1,0-0.1c0,0,0.1-0.1,0.1-0.1s0.1,0,0.2,0
		s0.2,0,0.3,0c0.1,0,0.3,0,0.3,0c0.1,0,0.2,0,0.2,0s0.1,0.1,0.1,0.1c0,0,0,0.1,0,0.1v3h3.8v-3c0,0,0-0.1,0-0.1c0,0,0.1-0.1,0.1-0.1
		s0.1,0,0.2,0s0.2,0,0.3,0c0.1,0,0.2,0,0.3,0s0.2,0,0.2,0s0.1,0.1,0.1,0.1c0,0,0,0.1,0,0.1V110.3z"/>
	<path class="st0" d="M176,110.3c0,0,0,0.1,0,0.1c0,0-0.1,0.1-0.1,0.1c0,0-0.1,0-0.2,0s-0.2,0-0.3,0c-0.1,0-0.2,0-0.3,0
		c-0.1,0-0.2,0-0.2,0c-0.1,0-0.1,0-0.1-0.1s0-0.1,0-0.1V106c0-0.2,0-0.4,0-0.7s0-0.4,0-0.7c-0.1,0.2-0.3,0.4-0.4,0.7
		c-0.2,0.2-0.3,0.4-0.5,0.6l-3.2,4.3c0,0-0.1,0.1-0.1,0.1s-0.1,0.1-0.1,0.1c0,0-0.1,0-0.2,0c-0.1,0-0.2,0-0.3,0c-0.1,0-0.2,0-0.3,0
		c-0.1,0-0.1,0-0.2,0c0,0-0.1,0-0.1-0.1s0-0.1,0-0.1v-7.5c0,0,0-0.1,0-0.1s0.1-0.1,0.1-0.1c0.1,0,0.1,0,0.2,0s0.2,0,0.3,0
		c0.3,0,0.4,0,0.5,0.1c0.1,0,0.1,0.1,0.1,0.2v4.3c0,0.2,0,0.4,0,0.6c0,0.2,0,0.4,0,0.6c0.1-0.2,0.3-0.4,0.4-0.6
		c0.1-0.2,0.3-0.4,0.4-0.6l3.2-4.4c0,0,0.1-0.1,0.1-0.1c0,0,0.1-0.1,0.1-0.1c0.1,0,0.1,0,0.2,0c0.1,0,0.2,0,0.3,0c0.1,0,0.2,0,0.3,0
		c0.1,0,0.1,0,0.2,0c0,0,0.1,0,0.1,0.1s0,0.1,0,0.1V110.3z"/>
	<path class="st0" d="M184,110.3c0,0,0,0.1,0,0.1c0,0-0.1,0.1-0.1,0.1s-0.1,0-0.2,0s-0.2,0-0.3,0s-0.2,0-0.3,0c-0.1,0-0.2,0-0.2,0
		c-0.1,0-0.1,0-0.1-0.1c0,0,0-0.1,0-0.1v-3c-0.3,0.1-0.6,0.2-1,0.3c-0.3,0.1-0.7,0.1-1.1,0.1c-0.5,0-0.9-0.1-1.3-0.2
		s-0.6-0.3-0.8-0.5c-0.2-0.2-0.4-0.5-0.4-0.8c-0.1-0.3-0.1-0.7-0.1-1.2v-2.1c0,0,0-0.1,0-0.1c0,0,0.1-0.1,0.1-0.1s0.1,0,0.2,0
		c0.1,0,0.2,0,0.3,0c0.1,0,0.3,0,0.3,0s0.2,0,0.2,0s0.1,0.1,0.1,0.1c0,0,0,0.1,0,0.1v1.9c0,0.4,0,0.8,0.1,1s0.2,0.4,0.3,0.5
		c0.1,0.1,0.3,0.2,0.5,0.3c0.2,0.1,0.4,0.1,0.7,0.1c0.3,0,0.6,0,1-0.1s0.6-0.2,0.9-0.4v-3.3c0,0,0-0.1,0-0.1c0,0,0.1-0.1,0.1-0.1
		c0.1,0,0.1,0,0.2,0c0.1,0,0.2,0,0.3,0s0.2,0,0.3,0s0.2,0,0.2,0s0.1,0.1,0.1,0.1c0,0,0,0.1,0,0.1V110.3z"/>
	<path class="st0" d="M192.9,106.2c0,0.2-0.1,0.4-0.2,0.5c-0.1,0.1-0.2,0.1-0.4,0.1h-4.9c0,0.4,0,0.8,0.1,1.1
		c0.1,0.3,0.2,0.6,0.4,0.9c0.2,0.2,0.4,0.4,0.8,0.5c0.3,0.1,0.7,0.2,1.1,0.2c0.4,0,0.7,0,1-0.1c0.3-0.1,0.5-0.1,0.7-0.2
		c0.2-0.1,0.4-0.1,0.5-0.2s0.2-0.1,0.3-0.1c0,0,0.1,0,0.1,0c0,0,0.1,0,0.1,0.1c0,0,0,0.1,0,0.2s0,0.2,0,0.3c0,0.1,0,0.1,0,0.2
		c0,0.1,0,0.1,0,0.1s0,0.1,0,0.1s0,0.1-0.1,0.1s-0.1,0.1-0.3,0.1s-0.3,0.1-0.6,0.2s-0.5,0.1-0.8,0.2c-0.3,0.1-0.6,0.1-1,0.1
		c-0.6,0-1.2-0.1-1.6-0.3c-0.5-0.2-0.9-0.4-1.2-0.8c-0.3-0.3-0.6-0.8-0.7-1.3c-0.2-0.5-0.2-1.1-0.2-1.8c0-0.6,0.1-1.2,0.2-1.7
		c0.2-0.5,0.4-0.9,0.7-1.3c0.3-0.4,0.7-0.6,1.1-0.8c0.4-0.2,0.9-0.3,1.5-0.3c0.6,0,1.1,0.1,1.5,0.3s0.8,0.4,1,0.8s0.5,0.7,0.6,1.1
		s0.2,0.9,0.2,1.4V106.2z M191.5,105.8c0-0.7-0.1-1.3-0.5-1.7c-0.3-0.4-0.8-0.6-1.5-0.6c-0.3,0-0.6,0.1-0.9,0.2
		c-0.3,0.1-0.5,0.3-0.6,0.5c-0.2,0.2-0.3,0.5-0.4,0.7c-0.1,0.3-0.1,0.6-0.2,0.9H191.5z"/>
	<path class="st0" d="M200.3,109.1c0,0.1,0,0.2,0,0.2c0,0.1,0,0.1,0,0.2c0,0,0,0.1,0,0.1c0,0-0.1,0.1-0.1,0.2
		c-0.1,0.1-0.2,0.2-0.4,0.3s-0.4,0.2-0.6,0.3s-0.4,0.1-0.7,0.2c-0.2,0-0.5,0.1-0.8,0.1c-0.5,0-1-0.1-1.4-0.3c-0.4-0.2-0.8-0.4-1-0.8
		c-0.3-0.3-0.5-0.8-0.6-1.3s-0.2-1.1-0.2-1.7c0-0.7,0.1-1.4,0.3-1.9c0.2-0.5,0.4-1,0.7-1.3c0.3-0.3,0.7-0.6,1.1-0.8
		c0.4-0.2,0.9-0.2,1.4-0.2c0.2,0,0.5,0,0.7,0.1c0.2,0,0.4,0.1,0.6,0.2s0.4,0.2,0.5,0.2s0.3,0.2,0.3,0.2s0.1,0.1,0.1,0.2
		c0,0,0,0.1,0.1,0.1s0,0.1,0,0.2s0,0.1,0,0.2c0,0.2,0,0.4-0.1,0.5s-0.1,0.1-0.2,0.1c-0.1,0-0.2,0-0.3-0.1s-0.2-0.2-0.4-0.3
		c-0.2-0.1-0.4-0.2-0.6-0.3c-0.2-0.1-0.5-0.1-0.8-0.1c-0.7,0-1.2,0.3-1.5,0.8c-0.4,0.5-0.5,1.2-0.5,2.2c0,0.5,0,0.9,0.1,1.3
		s0.2,0.7,0.4,0.9c0.2,0.2,0.4,0.4,0.7,0.5c0.3,0.1,0.6,0.2,0.9,0.2c0.3,0,0.6,0,0.8-0.1s0.4-0.2,0.6-0.3c0.2-0.1,0.3-0.2,0.4-0.3
		c0.1-0.1,0.2-0.1,0.3-0.1c0,0,0.1,0,0.1,0s0.1,0.1,0.1,0.1c0,0.1,0,0.1,0,0.2C200.3,108.9,200.3,109,200.3,109.1z"/>
	<path class="st0" d="M208.2,110.3C208.2,110.4,208.2,110.4,208.2,110.3c0,0.1-0.1,0.1-0.1,0.1s-0.1,0-0.2,0s-0.2,0-0.3,0
		c-0.2,0-0.3,0-0.4,0s-0.2,0-0.2,0c-0.1,0-0.1,0-0.1-0.1c0,0,0-0.1-0.1-0.1l-0.8-1.9c-0.1-0.2-0.2-0.5-0.3-0.6
		c-0.1-0.2-0.2-0.3-0.4-0.4c-0.1-0.1-0.3-0.2-0.5-0.2s-0.4-0.1-0.6-0.1h-0.6v3.4c0,0,0,0.1,0,0.1c0,0-0.1,0-0.1,0.1
		c-0.1,0-0.1,0-0.2,0c-0.1,0-0.2,0-0.3,0s-0.2,0-0.3,0s-0.2,0-0.2,0c-0.1,0-0.1,0-0.1-0.1c0,0,0-0.1,0-0.1v-7.6c0,0,0-0.1,0-0.1
		s0.1,0,0.1-0.1c0.1,0,0.1,0,0.2,0s0.2,0,0.3,0s0.2,0,0.3,0c0.1,0,0.2,0,0.2,0c0.1,0,0.1,0,0.1,0.1s0,0.1,0,0.1v3.1h0.6
		c0.2,0,0.4,0,0.6-0.1c0.2,0,0.3-0.1,0.5-0.2c0.1-0.1,0.3-0.2,0.4-0.4c0.1-0.2,0.2-0.4,0.3-0.6l0.7-1.7c0,0,0-0.1,0.1-0.1
		s0.1-0.1,0.1-0.1c0.1,0,0.1,0,0.2,0s0.2,0,0.4,0c0.1,0,0.2,0,0.3,0c0.1,0,0.2,0,0.2,0s0.1,0,0.1,0.1s0,0.1,0,0.1c0,0,0,0.1,0,0.2
		s0,0.1-0.1,0.2l-0.7,1.6c-0.1,0.3-0.2,0.5-0.4,0.7s-0.3,0.3-0.4,0.5s-0.3,0.2-0.4,0.3c-0.1,0.1-0.3,0.1-0.4,0.2v0
		c0.2,0.1,0.4,0.1,0.5,0.2c0.2,0.1,0.3,0.2,0.5,0.3c0.1,0.1,0.3,0.3,0.4,0.5c0.1,0.2,0.2,0.4,0.3,0.7l0.8,1.9c0,0,0,0.1,0,0.1
		c0,0,0,0.1,0,0.1C208.2,110.2,208.2,110.3,208.2,110.3C208.2,110.3,208.2,110.3,208.2,110.3z"/>
	<path class="st0" d="M215.4,110.3c0,0.1,0,0.1-0.1,0.1c0,0-0.1,0.1-0.2,0.1s-0.2,0-0.3,0c-0.1,0-0.3,0-0.3,0c-0.1,0-0.1,0-0.2-0.1
		s-0.1-0.1-0.1-0.1v-0.7c-0.3,0.3-0.7,0.6-1.1,0.8c-0.4,0.2-0.8,0.3-1.3,0.3c-0.4,0-0.7-0.1-1.1-0.2c-0.3-0.1-0.6-0.3-0.8-0.4
		c-0.2-0.2-0.4-0.4-0.5-0.7c-0.1-0.3-0.2-0.6-0.2-1c0-0.4,0.1-0.8,0.3-1.1c0.2-0.3,0.4-0.6,0.7-0.8s0.7-0.4,1.2-0.5
		c0.5-0.1,1-0.2,1.6-0.2h1v-0.6c0-0.3,0-0.5-0.1-0.8c-0.1-0.2-0.2-0.4-0.3-0.6c-0.1-0.1-0.3-0.3-0.5-0.3s-0.5-0.1-0.8-0.1
		c-0.3,0-0.6,0-0.9,0.1c-0.3,0.1-0.5,0.2-0.7,0.3c-0.2,0.1-0.4,0.2-0.5,0.3c-0.1,0.1-0.2,0.1-0.3,0.1c0,0-0.1,0-0.1,0
		c0,0-0.1-0.1-0.1-0.1c0,0,0-0.1-0.1-0.2c0-0.1,0-0.1,0-0.2c0-0.1,0-0.2,0-0.3s0.1-0.2,0.1-0.2c0.1-0.1,0.2-0.2,0.4-0.3
		c0.2-0.1,0.4-0.2,0.6-0.3c0.2-0.1,0.5-0.1,0.8-0.2c0.3-0.1,0.6-0.1,0.9-0.1c0.5,0,1,0.1,1.4,0.2c0.4,0.1,0.7,0.3,0.9,0.5
		c0.2,0.2,0.4,0.5,0.5,0.9c0.1,0.3,0.2,0.8,0.2,1.2V110.3z M214,106.9h-1.2c-0.4,0-0.7,0-1,0.1c-0.3,0.1-0.5,0.2-0.7,0.3
		s-0.3,0.3-0.4,0.4c-0.1,0.2-0.1,0.4-0.1,0.6c0,0.4,0.1,0.7,0.4,0.9s0.6,0.3,1,0.3c0.4,0,0.7-0.1,1-0.3c0.3-0.2,0.6-0.5,1-0.8V106.9
		z"/>
	<path class="st0" d="M223.4,110.3c0,0,0,0.1,0,0.1c0,0-0.1,0.1-0.1,0.1c0,0-0.1,0-0.2,0s-0.2,0-0.3,0c-0.1,0-0.2,0-0.3,0
		s-0.2,0-0.2,0c-0.1,0-0.1,0-0.1-0.1c0,0,0-0.1,0-0.1v-3.1h-0.8c-0.3,0-0.6,0-0.8,0.1c-0.2,0.1-0.4,0.1-0.5,0.3
		c-0.2,0.1-0.3,0.3-0.4,0.5c-0.1,0.2-0.2,0.4-0.3,0.7l-0.6,1.5c0,0.1-0.1,0.1-0.1,0.2c0,0-0.1,0.1-0.1,0.1c-0.1,0-0.1,0-0.2,0
		s-0.2,0-0.4,0c-0.1,0-0.2,0-0.3,0c-0.1,0-0.1,0-0.2,0c-0.1,0-0.1,0-0.1-0.1c0,0,0-0.1,0-0.1c0,0,0-0.1,0-0.2s0.1-0.2,0.2-0.5
		l0.6-1.4c0.2-0.4,0.3-0.7,0.6-0.9c0.2-0.3,0.5-0.4,0.8-0.6c-0.5-0.1-1-0.3-1.3-0.6s-0.5-0.8-0.5-1.3c0-0.4,0.1-0.7,0.2-1
		c0.1-0.3,0.4-0.5,0.7-0.7c0.3-0.2,0.6-0.4,1.1-0.5c0.4-0.1,0.9-0.2,1.5-0.2c0.1,0,0.3,0,0.5,0c0.2,0,0.4,0,0.5,0c0.2,0,0.4,0,0.5,0
		c0.2,0,0.3,0,0.5,0c0.2,0,0.3,0.1,0.4,0.2s0.1,0.2,0.1,0.4V110.3z M222.1,103.6c-0.2,0-0.4,0-0.6-0.1c-0.2,0-0.4,0-0.6,0
		c-0.4,0-0.7,0-0.9,0.1s-0.5,0.2-0.6,0.3c-0.2,0.1-0.3,0.3-0.3,0.4c-0.1,0.2-0.1,0.3-0.1,0.5c0,0.2,0,0.4,0.1,0.5s0.2,0.3,0.3,0.4
		c0.2,0.1,0.3,0.2,0.6,0.2c0.2,0.1,0.6,0.1,1,0.1h1.1V103.6z"/>
	<path class="st0" d="M236.1,110.3c0,0,0,0.1,0,0.1c0,0-0.1,0.1-0.1,0.1s-0.1,0-0.2,0c-0.1,0-0.2,0-0.3,0c-0.1,0-0.3,0-0.3,0
		s-0.2,0-0.2,0c-0.1,0-0.1,0-0.1-0.1c0,0,0-0.1,0-0.1v-6.5h-3.6v6.5c0,0,0,0.1,0,0.1c0,0-0.1,0.1-0.1,0.1c-0.1,0-0.1,0-0.2,0
		c-0.1,0-0.2,0-0.3,0s-0.2,0-0.3,0s-0.2,0-0.2,0s-0.1,0-0.1-0.1c0,0,0-0.1,0-0.1v-7.2c0-0.2,0-0.3,0.1-0.4s0.2-0.1,0.3-0.1h5.5
		c0.1,0,0.2,0,0.3,0.1s0.1,0.2,0.1,0.4V110.3z"/>
	<path class="st0" d="M245.6,106.5c0,0.6-0.1,1.2-0.2,1.7c-0.2,0.5-0.4,1-0.7,1.3c-0.3,0.4-0.7,0.7-1.2,0.9c-0.5,0.2-1,0.3-1.7,0.3
		c-0.6,0-1.1-0.1-1.6-0.3c-0.5-0.2-0.8-0.4-1.1-0.8s-0.5-0.8-0.7-1.3c-0.1-0.5-0.2-1.1-0.2-1.7c0-0.6,0.1-1.2,0.2-1.7
		c0.2-0.5,0.4-1,0.7-1.3c0.3-0.4,0.7-0.7,1.2-0.9s1-0.3,1.7-0.3c0.6,0,1.1,0.1,1.6,0.3c0.5,0.2,0.8,0.4,1.1,0.8
		c0.3,0.3,0.5,0.8,0.7,1.3C245.5,105.3,245.6,105.8,245.6,106.5z M244.2,106.6c0-0.4,0-0.8-0.1-1.1c-0.1-0.4-0.2-0.7-0.4-0.9
		c-0.2-0.3-0.4-0.5-0.7-0.6c-0.3-0.2-0.7-0.2-1.1-0.2c-0.4,0-0.8,0.1-1.1,0.2c-0.3,0.1-0.5,0.3-0.7,0.6c-0.2,0.3-0.3,0.6-0.4,0.9
		c-0.1,0.4-0.1,0.8-0.1,1.2c0,0.4,0,0.8,0.1,1.2c0.1,0.4,0.2,0.7,0.4,0.9c0.2,0.3,0.4,0.5,0.7,0.6s0.7,0.2,1.1,0.2
		c0.4,0,0.8-0.1,1-0.2c0.3-0.1,0.5-0.3,0.7-0.6s0.3-0.6,0.4-0.9S244.2,107,244.2,106.6z"/>
	<path class="st0" d="M247.2,113C247.2,113,247.2,113.1,247.2,113c0,0.1-0.1,0.1-0.1,0.2s-0.1,0-0.2,0s-0.2,0-0.3,0
		c-0.1,0-0.2,0-0.3,0s-0.1,0-0.2,0s-0.1,0-0.1-0.1s0-0.1,0-0.1v-3.3c0-0.1,0-0.2,0.1-0.3c0,0,0.1-0.1,0.3-0.1h0.5
		c0.2-0.2,0.4-0.5,0.6-0.9c0.2-0.3,0.3-0.7,0.5-1.2c0.2-0.5,0.3-1.1,0.4-1.7c0.1-0.7,0.2-1.5,0.3-2.4c0-0.1,0-0.1,0-0.2
		c0-0.1,0-0.1,0.1-0.1c0,0,0.1-0.1,0.1-0.1c0,0,0.1,0,0.2,0h4.1c0.1,0,0.2,0,0.3,0.1s0.1,0.2,0.1,0.4v6.2h1c0.1,0,0.2,0,0.2,0.1
		c0,0,0.1,0.1,0.1,0.3v3.3c0,0,0,0.1,0,0.1s0,0-0.1,0.1s-0.1,0-0.2,0c-0.1,0-0.2,0-0.3,0c-0.1,0-0.2,0-0.3,0s-0.1,0-0.2,0
		s-0.1,0-0.1-0.1s0-0.1,0-0.1v-2.5h-6.7V113z M252.4,103.7H250c-0.1,0.9-0.2,1.7-0.4,2.3c-0.1,0.6-0.3,1.1-0.4,1.6s-0.3,0.8-0.4,1
		c-0.2,0.3-0.3,0.5-0.5,0.7h4V103.7z"/>
	<path class="st0" d="M257.1,113C257.1,113,257.1,113.1,257.1,113c0,0.1-0.1,0.1-0.1,0.2s-0.1,0-0.2,0c-0.1,0-0.2,0-0.3,0
		c-0.1,0-0.2,0-0.3,0s-0.1,0-0.2,0s-0.1,0-0.1-0.1s0-0.1,0-0.1v-3.3c0-0.1,0-0.2,0.1-0.3c0,0,0.1-0.1,0.3-0.1h0.5
		c0.2-0.2,0.4-0.5,0.6-0.9c0.2-0.3,0.3-0.7,0.5-1.2s0.3-1.1,0.4-1.7s0.2-1.5,0.3-2.4c0-0.1,0-0.1,0-0.2c0-0.1,0-0.1,0.1-0.1
		c0,0,0.1-0.1,0.1-0.1c0,0,0.1,0,0.2,0h4.1c0.1,0,0.2,0,0.3,0.1c0.1,0.1,0.1,0.2,0.1,0.4v6.2h1c0.1,0,0.2,0,0.2,0.1
		c0,0,0.1,0.1,0.1,0.3v3.3c0,0,0,0.1,0,0.1s0,0-0.1,0.1s-0.1,0-0.2,0c-0.1,0-0.2,0-0.3,0c-0.1,0-0.2,0-0.3,0s-0.1,0-0.2,0
		c0,0-0.1,0-0.1-0.1c0,0,0-0.1,0-0.1v-2.5h-6.7V113z M262.2,103.7h-2.4c-0.1,0.9-0.2,1.7-0.4,2.3c-0.1,0.6-0.3,1.1-0.4,1.6
		s-0.3,0.8-0.4,1c-0.2,0.3-0.3,0.5-0.5,0.7h4V103.7z"/>
	<path class="st0" d="M272.7,106.2c0,0.2-0.1,0.4-0.2,0.5c-0.1,0.1-0.2,0.1-0.4,0.1h-4.9c0,0.4,0,0.8,0.1,1.1
		c0.1,0.3,0.2,0.6,0.4,0.9c0.2,0.2,0.4,0.4,0.8,0.5c0.3,0.1,0.7,0.2,1.1,0.2c0.4,0,0.7,0,1-0.1c0.3-0.1,0.5-0.1,0.7-0.2
		c0.2-0.1,0.4-0.1,0.5-0.2s0.2-0.1,0.3-0.1c0,0,0.1,0,0.1,0s0.1,0,0.1,0.1c0,0,0,0.1,0,0.2c0,0.1,0,0.2,0,0.3c0,0.1,0,0.1,0,0.2
		c0,0.1,0,0.1,0,0.1c0,0,0,0.1,0,0.1c0,0,0,0.1-0.1,0.1s-0.1,0.1-0.3,0.1s-0.3,0.1-0.6,0.2c-0.2,0.1-0.5,0.1-0.8,0.2
		c-0.3,0.1-0.6,0.1-1,0.1c-0.6,0-1.2-0.1-1.6-0.3s-0.9-0.4-1.2-0.8s-0.6-0.8-0.7-1.3c-0.2-0.5-0.2-1.1-0.2-1.8
		c0-0.6,0.1-1.2,0.2-1.7c0.2-0.5,0.4-0.9,0.7-1.3c0.3-0.4,0.7-0.6,1.1-0.8c0.4-0.2,0.9-0.3,1.5-0.3c0.6,0,1.1,0.1,1.5,0.3
		s0.8,0.4,1,0.8c0.3,0.3,0.5,0.7,0.6,1.1c0.1,0.4,0.2,0.9,0.2,1.4V106.2z M271.3,105.8c0-0.7-0.1-1.3-0.5-1.7
		c-0.3-0.4-0.8-0.6-1.5-0.6c-0.3,0-0.6,0.1-0.9,0.2c-0.3,0.1-0.5,0.3-0.6,0.5c-0.2,0.2-0.3,0.5-0.4,0.7s-0.1,0.6-0.2,0.9H271.3z"/>
	<path class="st0" d="M281.7,106.4c0,0.7-0.1,1.2-0.2,1.8c-0.1,0.5-0.3,1-0.6,1.3c-0.3,0.4-0.6,0.6-1,0.8c-0.4,0.2-0.9,0.3-1.4,0.3
		c-0.2,0-0.4,0-0.6-0.1c-0.2,0-0.4-0.1-0.6-0.2c-0.2-0.1-0.4-0.2-0.5-0.4c-0.2-0.1-0.4-0.3-0.6-0.5v3.7c0,0,0,0.1,0,0.1
		c0,0-0.1,0.1-0.1,0.1s-0.1,0-0.2,0c-0.1,0-0.2,0-0.3,0c-0.1,0-0.2,0-0.3,0c-0.1,0-0.2,0-0.2,0s-0.1,0-0.1-0.1c0,0,0-0.1,0-0.1
		v-10.4c0,0,0-0.1,0-0.1c0,0,0-0.1,0.1-0.1c0,0,0.1,0,0.2,0c0.1,0,0.2,0,0.3,0c0.1,0,0.2,0,0.3,0c0.1,0,0.1,0,0.2,0
		c0,0,0.1,0,0.1,0.1c0,0,0,0.1,0,0.1v1c0.2-0.2,0.4-0.4,0.7-0.6s0.4-0.3,0.6-0.4c0.2-0.1,0.4-0.2,0.7-0.3s0.5-0.1,0.7-0.1
		c0.5,0,1,0.1,1.4,0.3c0.4,0.2,0.7,0.5,0.9,0.9c0.2,0.4,0.4,0.8,0.5,1.3C281.6,105.4,281.7,105.9,281.7,106.4z M280.2,106.6
		c0-0.4,0-0.8-0.1-1.1c-0.1-0.4-0.2-0.7-0.3-1c-0.1-0.3-0.3-0.5-0.6-0.7c-0.2-0.2-0.5-0.2-0.9-0.2c-0.2,0-0.4,0-0.5,0.1
		c-0.2,0.1-0.3,0.1-0.5,0.2c-0.2,0.1-0.4,0.3-0.6,0.4c-0.2,0.2-0.4,0.4-0.6,0.7v3c0.4,0.5,0.7,0.8,1.1,1.1c0.3,0.2,0.7,0.4,1.1,0.4
		c0.3,0,0.6-0.1,0.9-0.2c0.2-0.2,0.4-0.4,0.6-0.7c0.2-0.3,0.3-0.6,0.3-0.9S280.2,106.9,280.2,106.6z"/>
	<path class="st0" d="M293.5,110.3C293.5,110.4,293.5,110.4,293.5,110.3c-0.1,0.1-0.1,0.1-0.1,0.1s-0.1,0-0.2,0c-0.1,0-0.2,0-0.3,0
		c-0.2,0-0.3,0-0.4,0c-0.1,0-0.2,0-0.2,0c-0.1,0-0.1,0-0.1-0.1c0,0,0-0.1-0.1-0.1l-0.8-1.9c-0.1-0.2-0.2-0.5-0.3-0.6
		c-0.1-0.2-0.2-0.3-0.4-0.4c-0.1-0.1-0.3-0.2-0.5-0.2c-0.2-0.1-0.4-0.1-0.6-0.1h-0.6v3.4c0,0,0,0.1,0,0.1s-0.1,0-0.1,0.1
		c-0.1,0-0.1,0-0.2,0s-0.2,0-0.3,0s-0.2,0-0.3,0c-0.1,0-0.2,0-0.2,0c-0.1,0-0.1,0-0.1-0.1c0,0,0-0.1,0-0.1V107H287
		c-0.2,0-0.5,0-0.6,0.1c-0.2,0.1-0.3,0.1-0.5,0.2c-0.1,0.1-0.3,0.3-0.4,0.4c-0.1,0.2-0.2,0.4-0.3,0.6l-0.8,1.9c0,0,0,0.1-0.1,0.1
		c0,0-0.1,0.1-0.1,0.1c-0.1,0-0.1,0-0.2,0s-0.2,0-0.4,0c-0.1,0-0.2,0-0.3,0s-0.2,0-0.2,0c-0.1,0-0.1,0-0.1-0.1c0,0,0-0.1,0-0.1
		s0-0.1,0-0.1s0-0.1,0.1-0.2l0.8-1.9c0.1-0.2,0.2-0.5,0.3-0.7s0.3-0.4,0.4-0.5s0.3-0.3,0.4-0.4c0.2-0.1,0.3-0.2,0.5-0.2v0
		c-0.1,0-0.3-0.1-0.4-0.2s-0.3-0.2-0.4-0.3c-0.1-0.1-0.3-0.3-0.4-0.5c-0.1-0.2-0.2-0.4-0.4-0.7l-0.7-1.7c0-0.1,0-0.1-0.1-0.2
		s0-0.1,0-0.2c0,0,0-0.1,0-0.1s0.1,0,0.1-0.1s0.1,0,0.2,0s0.2,0,0.3,0c0.1,0,0.3,0,0.4,0s0.2,0,0.2,0c0.1,0,0.1,0,0.1,0.1
		c0,0,0.1,0.1,0.1,0.1l0.7,1.7c0.1,0.2,0.2,0.4,0.3,0.6s0.2,0.3,0.4,0.4s0.3,0.2,0.4,0.2c0.2,0,0.4,0.1,0.6,0.1h0.6v-3.1
		c0,0,0-0.1,0-0.1c0,0,0.1,0,0.1-0.1c0.1,0,0.1,0,0.2,0c0.1,0,0.2,0,0.3,0s0.2,0,0.3,0s0.2,0,0.2,0c0.1,0,0.1,0,0.1,0.1s0,0.1,0,0.1
		v3.1h0.6c0.2,0,0.4,0,0.6-0.1s0.3-0.1,0.5-0.2s0.3-0.2,0.4-0.4c0.1-0.2,0.2-0.4,0.3-0.6l0.7-1.7c0,0,0-0.1,0.1-0.1
		c0,0,0.1-0.1,0.1-0.1c0.1,0,0.1,0,0.2,0c0.1,0,0.2,0,0.4,0c0.1,0,0.2,0,0.3,0c0.1,0,0.2,0,0.2,0c0,0,0.1,0,0.1,0.1c0,0,0,0.1,0,0.1
		c0,0,0,0.1,0,0.2s0,0.1-0.1,0.2l-0.7,1.7c-0.1,0.3-0.2,0.5-0.4,0.7c-0.1,0.2-0.3,0.3-0.4,0.5s-0.3,0.2-0.4,0.3
		c-0.1,0.1-0.3,0.1-0.4,0.2v0c0.2,0.1,0.4,0.1,0.5,0.2c0.2,0.1,0.3,0.2,0.4,0.4s0.3,0.3,0.4,0.5c0.1,0.2,0.2,0.4,0.3,0.7l0.8,1.9
		c0,0,0,0.1,0,0.1c0,0,0,0.1,0,0.1S293.5,110.3,293.5,110.3C293.5,110.3,293.5,110.3,293.5,110.3z"/>
	<path class="st0" d="M301.4,110.3C301.4,110.4,301.4,110.4,301.4,110.3c0,0.1-0.1,0.1-0.1,0.1c-0.1,0-0.1,0-0.2,0s-0.2,0-0.3,0
		c-0.2,0-0.3,0-0.4,0s-0.2,0-0.2,0c-0.1,0-0.1,0-0.1-0.1c0,0,0-0.1-0.1-0.1l-0.8-1.9c-0.1-0.2-0.2-0.5-0.3-0.6
		c-0.1-0.2-0.2-0.3-0.4-0.4c-0.1-0.1-0.3-0.2-0.5-0.2c-0.2,0-0.4-0.1-0.6-0.1h-0.6v3.4c0,0,0,0.1,0,0.1c0,0-0.1,0-0.1,0.1
		c-0.1,0-0.1,0-0.2,0c-0.1,0-0.2,0-0.3,0c-0.1,0-0.2,0-0.3,0s-0.2,0-0.2,0c-0.1,0-0.1,0-0.1-0.1c0,0,0-0.1,0-0.1v-7.6
		c0,0,0-0.1,0-0.1c0,0,0.1,0,0.1-0.1c0.1,0,0.1,0,0.2,0s0.2,0,0.3,0c0.1,0,0.2,0,0.3,0c0.1,0,0.2,0,0.2,0c0.1,0,0.1,0,0.1,0.1
		s0,0.1,0,0.1v3.1h0.6c0.2,0,0.4,0,0.6-0.1c0.2,0,0.3-0.1,0.5-0.2s0.3-0.2,0.4-0.4s0.2-0.4,0.3-0.6l0.7-1.7c0,0,0-0.1,0.1-0.1
		s0.1-0.1,0.1-0.1c0.1,0,0.1,0,0.2,0c0.1,0,0.2,0,0.4,0c0.1,0,0.2,0,0.3,0c0.1,0,0.2,0,0.2,0c0,0,0.1,0,0.1,0.1s0,0.1,0,0.1
		c0,0,0,0.1,0,0.2c0,0.1,0,0.1-0.1,0.2l-0.7,1.6c-0.1,0.3-0.2,0.5-0.4,0.7s-0.3,0.3-0.4,0.5s-0.3,0.2-0.4,0.3
		c-0.1,0.1-0.3,0.1-0.4,0.2v0c0.2,0.1,0.4,0.1,0.5,0.2c0.2,0.1,0.3,0.2,0.5,0.3c0.1,0.1,0.3,0.3,0.4,0.5c0.1,0.2,0.2,0.4,0.3,0.7
		l0.8,1.9c0,0,0,0.1,0,0.1s0,0.1,0,0.1C301.4,110.2,301.4,110.3,301.4,110.3C301.4,110.3,301.4,110.3,301.4,110.3z"/>
	<path class="st0" d="M308.6,110.3c0,0.1,0,0.1-0.1,0.1s-0.1,0.1-0.2,0.1s-0.2,0-0.3,0c-0.1,0-0.3,0-0.3,0s-0.1,0-0.2-0.1
		s-0.1-0.1-0.1-0.1v-0.7c-0.3,0.3-0.7,0.6-1.1,0.8c-0.4,0.2-0.8,0.3-1.3,0.3c-0.4,0-0.7-0.1-1.1-0.2c-0.3-0.1-0.6-0.3-0.8-0.4
		c-0.2-0.2-0.4-0.4-0.5-0.7c-0.1-0.3-0.2-0.6-0.2-1c0-0.4,0.1-0.8,0.3-1.1c0.2-0.3,0.4-0.6,0.7-0.8s0.7-0.4,1.2-0.5
		c0.5-0.1,1-0.2,1.6-0.2h1v-0.6c0-0.3,0-0.5-0.1-0.8s-0.2-0.4-0.3-0.6c-0.1-0.1-0.3-0.3-0.5-0.3s-0.5-0.1-0.8-0.1
		c-0.3,0-0.6,0-0.9,0.1s-0.5,0.2-0.7,0.3c-0.2,0.1-0.4,0.2-0.5,0.3s-0.2,0.1-0.3,0.1c0,0-0.1,0-0.1,0c0,0-0.1-0.1-0.1-0.1
		c0,0,0-0.1-0.1-0.2c0-0.1,0-0.1,0-0.2c0-0.1,0-0.2,0-0.3s0.1-0.2,0.1-0.2c0.1-0.1,0.2-0.2,0.4-0.3c0.2-0.1,0.4-0.2,0.6-0.3
		c0.2-0.1,0.5-0.1,0.8-0.2s0.6-0.1,0.9-0.1c0.5,0,1,0.1,1.4,0.2s0.7,0.3,0.9,0.5c0.2,0.2,0.4,0.5,0.5,0.9c0.1,0.3,0.2,0.8,0.2,1.2
		V110.3z M307.2,106.9h-1.2c-0.4,0-0.7,0-1,0.1c-0.3,0.1-0.5,0.2-0.7,0.3s-0.3,0.3-0.4,0.4c-0.1,0.2-0.1,0.4-0.1,0.6
		c0,0.4,0.1,0.7,0.4,0.9s0.6,0.3,1,0.3c0.4,0,0.7-0.1,1-0.3s0.6-0.5,1-0.8V106.9z"/>
</g>
</svg>
